<?xml version="1.0" encoding="UTF-8"?>
<svg id="Layer_2" data-name="Layer 2" xmlns="http://www.w3.org/2000/svg" viewBox="0 0 139.9 140.69">
  <defs>
    <style>
      .cls-1 {
        fill: #fff;
        stroke-width: 0px;
      }

      .cls-2 {
        fill: none;
        stroke: rgba(255, 255, 255, .8);
        stroke-linecap: round;
        stroke-width: 5px;
      }
    </style>
  </defs>
  <g id="Layer_1-2" data-name="Layer 1">
    <g>
      <path class="cls-1" d="M111.63,78.75h-63.31l27.53,27.62c1.57,1.58,2.45,3.72,2.45,5.96s-.88,4.38-2.45,5.96c-1.57,1.58-3.7,2.47-5.92,2.47s-4.35-.89-5.92-2.47l-41.71-41.98c-.76-.8-1.35-1.74-1.75-2.77-.83-2.04-.83-4.34,0-6.38.4-1.03.99-1.97,1.75-2.77l41.71-41.98c.78-.79,1.7-1.41,2.71-1.84,1.02-.43,2.11-.65,3.21-.65s2.19.22,3.21.65c1.02.43,1.94,1.05,2.71,1.84.78.78,1.4,1.71,1.83,2.73.42,1.02.64,2.12.64,3.23s-.22,2.21-.64,3.23c-.42,1.02-1.04,1.95-1.83,2.73l-27.53,27.62h63.31c2.21,0,4.33.88,5.9,2.46,1.56,1.57,2.44,3.71,2.44,5.94s-.88,4.36-2.44,5.94c-1.57,1.57-3.69,2.46-5.9,2.46Z"/>
      <path class="cls-2" d="M9.83,88.48l-.02-.02-.02-.02-.11-.12,1.81-1.72-1.81,1.72c-2.3-2.42-4.11-5.26-5.32-8.35-2.47-6.17-2.47-13.06,0-19.23,1.22-3.1,3.02-5.94,5.32-8.35h0l.11-.12.02-.02.02-.02L51.62,10.15s0,0,0,0c2.38-2.41,5.22-4.33,8.36-5.65,3.15-1.32,6.53-2,9.95-2s6.8.68,9.95,2c3.13,1.31,5.96,3.22,8.34,5.63,2.39,2.4,4.28,5.23,5.57,8.35,1.3,3.14,1.97,6.5,1.97,9.89s-.67,6.75-1.97,9.89c-.93,2.26-2.18,4.37-3.71,6.27h21.56c6.87,0,13.44,2.75,18.26,7.6,4.82,4.85,7.5,11.41,7.5,18.22s-2.69,13.37-7.5,18.22c-4.82,4.85-11.39,7.6-18.26,7.6h-21.57c3.65,4.57,5.66,10.27,5.66,16.16,0,6.82-2.69,13.38-7.51,18.24-4.83,4.86-11.4,7.61-18.28,7.61s-13.45-2.75-18.28-7.61L9.83,88.48Z"/>
    </g>
  </g>
</svg>