<svg width="200" height="154" viewBox="0 0 200 154" fill="none" xmlns="http://www.w3.org/2000/svg">
<path d="M99.9921 81.8649C47.0116 81.8649 14.4824 60.7918 14.4824 45.6795C14.4824 30.5673 47.0272 9.49414 99.9921 9.49414C152.957 9.49414 185.486 30.5673 185.486 45.6795C185.486 60.7918 152.957 81.8649 99.9921 81.8649Z" fill="#310D54"/>
<path d="M99.9922 53.7105C82.8716 53.7105 72.3657 46.8937 72.3657 42.0223C72.3657 37.1508 82.8716 30.334 99.9922 30.334C117.113 30.334 127.619 37.1508 127.619 42.0223C127.619 46.8937 117.113 53.7105 99.9922 53.7105Z" fill="#FFFF5E" stroke="#FCC601" stroke-miterlimit="10"/>
<path d="M100.008 92.2919C47.105 92.2919 4.06995 72.4639 4.06995 48.0913C4.06995 23.7187 47.105 3.89062 100.008 3.89062C152.91 3.89062 195.93 23.7187 195.93 48.0913C195.93 72.4639 152.895 92.2919 100.008 92.2919ZM100.008 8.71534C76.0233 8.71534 53.6731 13.151 37.0505 21.2129C22.4513 28.2944 13.7198 37.4458 13.7198 45.6789C13.7198 61.118 46.5447 82.6425 100.008 82.6425C123.977 82.6425 146.342 78.2068 162.949 70.1449C177.549 63.0634 186.28 53.912 186.28 45.6789C186.28 30.2398 153.455 8.71534 100.008 8.71534Z" fill="#F99348"/>
<path d="M100.008 4.66964C125.611 4.66964 149.658 9.29203 167.728 17.6964C185.408 25.9295 195.152 36.7151 195.152 48.0921C195.152 59.4691 185.408 70.2547 167.728 78.4878C149.658 86.8922 125.611 91.5145 100.008 91.5145C74.4046 91.5145 50.3423 86.8922 32.2723 78.4878C14.5914 70.2547 4.84817 59.4691 4.84817 48.0921C4.84817 36.7151 14.5914 25.9295 32.2723 17.6964C50.3423 9.29203 74.389 4.66964 100.008 4.66964ZM100.008 83.4215C124.101 83.4215 146.576 78.9547 163.292 70.8461C178.171 63.6246 187.058 54.2242 187.058 45.6797C187.058 37.1353 178.171 27.7349 163.292 20.5134C146.576 12.4048 124.086 7.938 100.008 7.938C75.9299 7.938 53.424 12.4048 36.7081 20.5134C21.8287 27.7349 12.9416 37.1353 12.9416 45.6797C12.9416 54.2242 21.8287 63.6246 36.7081 70.8461C53.4396 78.9547 75.9143 83.4215 100.008 83.4215ZM100.008 3.11328C46.5914 3.11328 3.29175 23.2526 3.29175 48.0921C3.29175 72.9316 46.5914 93.0709 100.008 93.0709C153.424 93.0709 196.708 72.9316 196.708 48.0921C196.708 23.2526 153.408 3.11328 100.008 3.11328ZM100.008 81.8651C47.0272 81.8651 14.498 60.792 14.498 45.6797C14.498 30.5675 47.0272 9.49436 100.008 9.49436C152.988 9.49436 185.502 30.5675 185.502 45.6797C185.502 60.792 152.973 81.8651 100.008 81.8651Z" fill="#EF4136"/>
<path d="M100.008 90.2688C49.0973 90.2688 6.09338 70.9544 6.09338 48.0914C6.09338 25.2285 49.0973 5.91406 100.008 5.91406C150.918 5.91406 193.907 25.2285 193.907 48.0914C193.907 70.9544 150.903 90.2688 100.008 90.2688ZM100.008 6.69224C47.9611 6.69224 11.6965 27.2362 11.6965 45.6791C11.6965 64.1219 47.9611 84.6659 100.008 84.6659C152.054 84.6659 188.303 64.1219 188.303 45.6791C188.303 27.2362 152.039 6.69224 100.008 6.69224Z" fill="#FCC486"/>
<path d="M196.708 48.0918V105.693C196.708 130.517 153.408 150.656 100.008 150.656C46.6069 150.656 3.29175 130.517 3.29175 105.693V48.0918C3.29175 59.0486 11.7275 69.0871 25.7198 76.9C43.463 86.7829 70.1556 93.0706 100.008 93.0706C129.86 93.0706 156.552 86.7829 174.28 76.9C188.288 69.0871 196.708 59.0486 196.708 48.0918Z" fill="#FF6F00"/>
<path d="M100.008 3.11272C153.409 3.11272 196.708 23.252 196.708 48.0915V105.692C196.708 130.516 153.409 150.656 100.008 150.656C46.607 150.656 3.2918 130.516 3.2918 105.692V48.0915C3.2918 23.252 46.5914 3.11272 100.008 3.11272ZM100.008 0C73.7354 0 48.9727 4.77803 30.3113 13.4625C10.8871 22.505 0.178955 34.8002 0.178955 48.0915V105.692C0.178955 118.984 10.8716 131.279 30.3113 140.306C48.9883 148.99 73.7354 153.768 100.008 153.768C126.28 153.768 151.027 148.99 169.689 140.306C189.113 131.279 199.821 118.984 199.821 105.692V48.0915C199.821 34.8002 189.128 22.505 169.689 13.4625C151.027 4.77803 126.28 0 100.008 0Z" fill="#1E1E1E"/>
<path d="M196.708 48.0918V65.383C196.708 64.3091 196.63 63.2507 196.459 62.1924C192.942 85.5378 151.105 103.981 100.008 103.981C48.9104 103.981 7.05828 85.5378 3.54078 62.1924C3.36957 63.2507 3.29175 64.3091 3.29175 65.383V48.0918C3.29175 48.4342 3.30731 48.7766 3.32288 49.119C3.32288 49.3058 3.32288 49.5081 3.35401 49.6948C3.44739 50.9866 3.66529 52.2784 4.0077 53.5391C3.99214 53.5546 4.0077 53.5546 4.0077 53.5546C4.27229 54.6285 4.64583 55.6868 5.08163 56.7296C5.12832 56.8541 5.17502 56.9631 5.23727 57.0876C5.37735 57.4144 5.51743 57.7257 5.67307 58.0525C5.82871 58.3793 5.99992 58.6906 6.17113 59.0019C6.5291 59.6867 6.91821 60.3559 7.35401 61.0096C7.52521 61.2897 7.71198 61.5543 7.89875 61.8345C10.2334 65.2273 13.4085 68.4334 17.2995 71.4061C17.4396 71.515 17.5641 71.624 17.7042 71.7329C17.891 71.8574 18.0777 71.9975 18.2645 72.1376C18.3579 72.1998 18.4357 72.2776 18.5291 72.3399C19.1984 72.8224 19.8832 73.2893 20.5991 73.7717C21.6575 74.4877 22.7626 75.1725 23.9143 75.8573C24.3968 76.1374 24.8793 76.4176 25.3773 76.6977C25.4863 76.7755 25.6108 76.8378 25.7198 76.9C25.8598 76.9778 26.0155 77.0712 26.1711 77.149C26.5758 77.3669 26.996 77.6004 27.4163 77.8183C28.5524 78.4253 29.7353 79.0011 30.9493 79.577C31.4474 79.826 31.961 80.0594 32.4746 80.2929C33.1906 80.6197 33.9221 80.9466 34.6692 81.2578C35.3073 81.5224 35.961 81.787 36.6147 82.0516C36.6458 82.0671 36.677 82.0827 36.7081 82.0983C37.3307 82.3473 37.9532 82.5963 38.5914 82.8298C39.2606 83.0943 39.9299 83.3434 40.6147 83.5924C42.7003 84.355 44.8482 85.0709 47.0738 85.7402C47.7587 85.9425 48.4435 86.1604 49.1439 86.3627C53.3307 87.5611 57.7509 88.635 62.3579 89.5377C63.6809 89.8023 65.0194 90.0513 66.3735 90.2847C70.9338 91.0629 75.6653 91.701 80.5213 92.1524C81.3151 92.2302 82.0933 92.308 82.8871 92.3702C84.0077 92.4636 85.1283 92.5414 86.2645 92.6193C87.1672 92.6815 88.07 92.7282 88.9727 92.7749C89.8754 92.8216 90.7937 92.8683 91.6964 92.8994C92.6147 92.9461 93.533 92.9772 94.4513 92.9928C96.2879 93.0395 98.14 93.0706 100.008 93.0706C101.875 93.0706 103.728 93.0395 105.564 92.9928C106.482 92.9772 107.401 92.9461 108.319 92.8994C109.222 92.8683 110.14 92.8216 111.043 92.7749C111.945 92.7282 112.848 92.6815 113.751 92.6193C114.887 92.5414 116.008 92.4636 117.128 92.3702C117.922 92.308 118.7 92.2302 119.494 92.1524C124.288 91.701 128.942 91.0785 133.44 90.3159C134.856 90.0668 136.257 89.8178 137.642 89.5377C145.486 87.9969 152.786 85.9892 159.385 83.5924C160.07 83.3434 160.755 83.0943 161.424 82.8298C162.093 82.5807 162.747 82.3317 163.401 82.0516C164.054 81.787 164.693 81.5224 165.331 81.2578C167.883 80.1684 170.311 79.0167 172.584 77.8183C173.004 77.6004 173.424 77.3669 173.829 77.149C173.984 77.0712 174.14 76.9778 174.28 76.9C174.389 76.8378 174.514 76.7755 174.622 76.6977C175.121 76.4331 175.603 76.153 176.086 75.8573C178.311 74.5344 180.397 73.1648 182.296 71.7329C186.031 68.9315 189.113 65.9277 191.447 62.7527C191.619 62.5348 191.774 62.3014 191.945 62.0835C193.159 60.3559 194.156 58.5661 194.918 56.7452C195.354 55.7024 195.728 54.6285 195.992 53.5546C195.992 53.5546 196.008 53.5546 195.992 53.5391C196.335 52.2784 196.552 50.9866 196.646 49.6948C196.661 49.5081 196.677 49.3058 196.677 49.119C196.693 48.7766 196.708 48.4342 196.708 48.0918Z" fill="#FF6F00"/>
<path d="M196.708 48.0918V65.383C196.708 64.3091 196.63 63.2507 196.459 62.1924C192.942 85.5378 151.105 103.981 100.008 103.981C48.9104 103.981 7.05828 85.5378 3.54078 62.1924C3.36957 63.2507 3.29175 64.3091 3.29175 65.383V48.0918C3.29175 48.4342 3.30731 48.7766 3.32288 49.119C3.32288 49.3058 3.32288 49.5081 3.35401 49.6948C3.44739 50.9866 3.66529 52.2784 4.0077 53.5391C3.99214 53.5546 4.0077 53.5546 4.0077 53.5546C4.27229 54.6285 4.64583 55.6868 5.08163 56.7296C5.12832 56.8541 5.17502 56.9631 5.23727 57.0876C5.37735 57.4144 5.51743 57.7257 5.67307 58.0525C5.82871 58.3793 5.99992 58.6906 6.17113 59.0019C6.5291 59.6867 6.91821 60.3559 7.35401 61.0096C7.52521 61.2897 7.71198 61.5543 7.89875 61.8345C10.2334 65.2273 13.4085 68.4334 17.2995 71.4061C17.4396 71.515 17.5641 71.624 17.7042 71.7329C17.891 71.8574 18.0777 71.9975 18.2645 72.1376C18.3579 72.1998 18.4357 72.2776 18.5291 72.3399C19.1984 72.8224 19.8832 73.2893 20.5991 73.7717C21.6575 74.4877 22.7626 75.1725 23.9143 75.8573C24.3968 76.1374 24.8793 76.4176 25.3773 76.6977C25.4863 76.7755 25.6108 76.8378 25.7198 76.9C25.8598 76.9778 26.0155 77.0712 26.1711 77.149C26.5758 77.3669 26.996 77.6004 27.4163 77.8183C28.5524 78.4253 29.7353 79.0011 30.9493 79.577C31.4474 79.826 31.961 80.0594 32.4746 80.2929C33.1906 80.6197 33.9221 80.9466 34.6692 81.2578C35.3073 81.5224 35.961 81.787 36.6147 82.0516C36.6458 82.0671 36.677 82.0827 36.7081 82.0983C37.3307 82.3473 37.9532 82.5963 38.5914 82.8298C39.2606 83.0943 39.9299 83.3434 40.6147 83.5924C42.7003 84.355 44.8482 85.0709 47.0738 85.7402C47.7587 85.9425 48.4435 86.1604 49.1439 86.3627C53.3307 87.5611 57.7509 88.635 62.3579 89.5377C63.6809 89.8023 65.0194 90.0513 66.3735 90.2847C70.9338 91.0629 75.6653 91.701 80.5213 92.1524C81.3151 92.2302 82.0933 92.308 82.8871 92.3702C84.0077 92.4636 85.1283 92.5414 86.2645 92.6193C87.1672 92.6815 88.07 92.7282 88.9727 92.7749C89.8754 92.8216 90.7937 92.8683 91.6964 92.8994C92.6147 92.9461 93.533 92.9772 94.4513 92.9928C96.2879 93.0395 98.14 93.0706 100.008 93.0706C101.875 93.0706 103.728 93.0395 105.564 92.9928C106.482 92.9772 107.401 92.9461 108.319 92.8994C109.222 92.8683 110.14 92.8216 111.043 92.7749C111.945 92.7282 112.848 92.6815 113.751 92.6193C114.887 92.5414 116.008 92.4636 117.128 92.3702C117.922 92.308 118.7 92.2302 119.494 92.1524C124.288 91.701 128.942 91.0785 133.44 90.3159C134.856 90.0668 136.257 89.8178 137.642 89.5377C145.486 87.9969 152.786 85.9892 159.385 83.5924C160.07 83.3434 160.755 83.0943 161.424 82.8298C162.093 82.5807 162.747 82.3317 163.401 82.0516C164.054 81.787 164.693 81.5224 165.331 81.2578C167.883 80.1684 170.311 79.0167 172.584 77.8183C173.004 77.6004 173.424 77.3669 173.829 77.149C173.984 77.0712 174.14 76.9778 174.28 76.9C174.389 76.8378 174.514 76.7755 174.622 76.6977C175.121 76.4331 175.603 76.153 176.086 75.8573C178.311 74.5344 180.397 73.1648 182.296 71.7329C186.031 68.9315 189.113 65.9277 191.447 62.7527C191.619 62.5348 191.774 62.3014 191.945 62.0835C193.159 60.3559 194.156 58.5661 194.918 56.7452C195.354 55.7024 195.728 54.6285 195.992 53.5546C195.992 53.5546 196.008 53.5546 195.992 53.5391C196.335 52.2784 196.552 50.9866 196.646 49.6948C196.661 49.5081 196.677 49.3058 196.677 49.119C196.693 48.7766 196.708 48.4342 196.708 48.0918Z" fill="#FF6F00"/>
<path d="M100.008 145.052C45.5019 145.052 8.8949 124.695 8.8949 105.692V71.5294C12.6926 75.218 17.4085 78.6731 22.9805 81.7858C42.249 92.5092 70.3112 98.6724 100.008 98.6724C129.704 98.6724 157.766 92.5247 177.004 81.7858C182.576 78.6731 191.603 72.759 194.98 64.1367V101.085C194.98 120.088 154.498 145.052 100.008 145.052Z" fill="url(#paint0_linear_212_28)"/>
<defs>
<linearGradient id="paint0_linear_212_28" x1="8.8949" y1="104.602" x2="194.98" y2="104.602" gradientUnits="userSpaceOnUse">
<stop stop-color="#FF6F00" stop-opacity="0"/>
<stop offset="1" stop-color="#C04300" stop-opacity="0.6"/>
</linearGradient>
</defs>
</svg>
