<svg width="252" height="188" viewBox="0 0 252 188" fill="none" xmlns="http://www.w3.org/2000/svg">
<path d="M204.618 17.8352L204.618 17.8353C224.037 26.1933 235.239 36.3791 241.582 46.1159C247.925 55.8522 249.387 65.1032 249.387 71.5532V111.365C249.387 124.263 243.534 153.189 204.618 169.923M204.618 17.8352L204.42 169.464M204.618 17.8352C183.095 8.58906 155.18 3.49163 126.008 3.49163C96.8354 3.49163 68.9055 8.58905 47.3824 17.8352L47.3821 17.8353C27.9626 26.1933 16.761 36.3791 10.4176 46.1159C4.07457 55.8522 2.61284 65.1032 2.61284 71.5532V111.365C2.61284 124.263 8.46565 153.189 47.3823 169.923M204.618 17.8352L47.5798 169.464M204.618 169.923L204.42 169.464M204.618 169.923C204.618 169.923 204.618 169.923 204.618 169.923L204.42 169.464M204.618 169.923C183.106 179.18 155.195 185.387 126.008 185.387C96.821 185.387 68.8937 179.18 47.3823 169.923M204.42 169.464C182.973 178.693 155.128 184.887 126.008 184.887C96.8872 184.887 69.0272 178.693 47.5798 169.464M47.3823 169.923L47.5798 169.464M47.3823 169.923C47.3822 169.923 47.3822 169.923 47.3821 169.923L47.5798 169.464M8.47299 45.2042C14.9568 35.1291 26.4592 24.5347 46.5478 15.8902C68.3245 6.53779 96.5346 1.37891 126.008 1.37891C155.466 1.37891 183.676 6.53783 205.452 15.8903C225.541 24.5426 237.043 35.137 243.527 45.2101C250.012 55.2844 251.5 64.8738 251.5 71.5532V111.365C251.5 116.128 250.672 126.659 244.51 138.291C238.352 149.914 226.851 162.668 205.452 171.868C182.034 181.94 153.837 187.5 126.008 187.5C98.1786 187.5 69.9664 181.94 46.5477 171.868C25.1486 162.668 13.6482 149.91 7.49048 138.285C1.32783 126.652 0.5 116.12 0.5 111.365V71.5532C0.5 64.8738 1.98843 55.2804 8.47299 45.2042Z" fill="#1E1E1E" stroke="black"/>
<path d="M226.77 71.5538C227.113 69.7484 227.3 67.9275 227.3 66.0754C227.3 51.1655 215.953 37.6718 195.315 28.0691C176.654 19.4002 152.047 14.6377 126.008 14.6377C99.9688 14.6377 75.3463 19.4002 56.6848 28.0691C36.0622 37.6718 24.7003 51.1655 24.7003 66.0754C24.7003 67.9275 24.8871 69.7484 25.2295 71.5538V77H3.11279V71.5538C3.11279 58.8072 8.88711 34.9482 47.5797 18.2951C69.0272 9.06592 96.8871 3.99219 126.008 3.99219C155.128 3.99219 182.973 9.08148 204.42 18.2951C243.113 34.9482 248.887 58.8072 248.887 71.5538V77H226.77V71.5538Z" fill="#CCCCCC"/>
</svg>
