<svg width="246" height="131" viewBox="0 0 246 131" fill="none" xmlns="http://www.w3.org/2000/svg">
<path d="M245.887 17.5527C245.887 30.2993 240.113 54.1583 201.42 70.8114C179.973 80.0406 152.128 85.1143 123.008 85.1143C93.8871 85.1143 66.0272 80.0406 44.5797 70.8114C5.88711 54.1583 0.112793 30.2993 0.112793 17.5527H22.2295C24.6575 30.2682 35.6147 41.6608 53.6848 50.0651C72.3463 58.734 96.9533 63.5276 123.008 63.5276C149.062 63.5276 173.654 58.734 192.315 50.0651C210.385 41.6608 221.342 30.2682 223.77 17.5527H245.887Z" fill="#CCCCCC"/>
<path d="M223.241 4.33901C223.537 6.50235 225.156 10.2843 223.77 17.5525C221.342 30.268 210.385 41.6605 192.315 50.0649C173.654 58.7338 149.047 63.5274 123.008 63.5274C96.9688 63.5274 72.3462 58.7338 53.6848 50.0649C35.6147 41.6605 24.6575 30.268 22.2295 17.5525C20.782 8.33886 23.5214 2.64258 23.5214 2.64258" stroke="#1E1E1E" stroke-width="4" stroke-miterlimit="10" stroke-linecap="round"/>
<path d="M245.887 17.5527V57.3644C245.887 70.111 240.113 98.8259 201.42 115.463C179.973 124.693 152.128 130.887 123.008 130.887C93.8871 130.887 66.0272 124.693 44.5797 115.463C5.88711 98.8259 0.112793 70.111 0.112793 57.3644V17.5527C0.112793 30.2993 5.88711 54.1583 44.5797 70.8114C66.0272 80.0406 93.8871 85.1143 123.008 85.1143C152.128 85.1143 179.973 80.0406 201.42 70.8114C240.113 54.1583 245.887 30.2993 245.887 17.5527Z" fill="#B2B1B1"/>
</svg>
