<svg width="418" height="418" viewBox="0 0 418 418" fill="none" xmlns="http://www.w3.org/2000/svg">
<path d="M386.688 229.065L387.094 221.549L391.527 221.905L392.056 216.466L387.153 216.123L387.469 208.836L404.104 209.619L414.599 217.06L414.228 223.914L403.891 229.448L386.688 229.065ZM398.693 216.512L398.375 222.393L402.386 222.61L406.632 220.652L406.697 219.445L402.092 216.501L398.693 216.512Z" fill="white"/>
<path d="M385.95 230.409L412.903 235.44L410.56 250.194L405.836 253.208L396.112 251.309L394.221 248.762L389.952 250.984L382.154 249.62L383.423 241.686L390.956 243.439L393.043 242.142L393.453 239.798L384.579 238.246L385.95 230.409ZM405.438 245.299L406.154 242.337L399.854 241.234L399.478 244.059L400.811 245.718L403.923 246.262L405.438 245.299Z" fill="white"/>
<path d="M382.791 250.726L408.059 258.108C408.092 258.09 407.754 259.359 407.047 261.915C406.357 264.504 405.655 267.088 404.94 269.669L403.869 273.541L396.907 271.784L399.287 263.5L396.058 262.451L394.557 267.254L389.234 265.724L390.617 261.334L387.667 260.161L384.59 268.894L378.33 267.096L382.791 250.726Z" fill="white"/>
<path d="M398.275 286.792L394.975 294.983L386.682 290.9L383.379 292.479L384.741 296.239L392.979 300.166L389.279 307.475L378.26 302.223L377.195 293.852L367.917 290.293L371.429 282.203L380.568 286.776L386.85 282.209L398.275 286.792Z" fill="white"/>
<path d="M367.712 298.3L384.317 308.673L386.292 314.48L378.603 325.673L372.961 326.594L357.334 317.08L354.97 311.302L362.418 299.908L367.712 298.3ZM376.503 313.993L375.953 312.251L368.033 307.263L366.397 307.789L364.165 311.269L364.856 313.009L372.437 317.733L374.173 317.41L376.503 313.993Z" fill="white"/>
<path d="M372.582 331.937L367.494 338.458L352.796 326.306L350.872 328.511L365.679 340.653L360.471 347.074L343.443 332.844L341.573 328.312L350.173 318.217L354.729 317.48L372.582 331.937Z" fill="white"/>
<path d="M332.106 337.866L349.721 358.878L338.537 368.781L332.974 368.107L326.672 360.462L326.831 357.293L322.123 356.297L316.968 350.288L322.989 344.968L327.692 351.108L330.128 351.433L331.934 349.884L326.068 343.047L332.106 337.866ZM337.692 361.747L340.128 359.914L335.963 355.06L333.879 357.003L333.854 359.13L335.911 361.528L337.692 361.747Z" fill="white"/>
<path d="M316.533 351.705L331.372 373.449C331.408 373.455 330.342 374.222 328.173 375.748C325.997 377.31 323.814 378.862 321.623 380.402L318.338 382.714L314.074 376.937L321.171 372.047L319.342 369.187L315.133 371.945L311.991 367.384L315.847 364.87L314.312 362.091L306.39 366.886L302.695 361.523L316.533 351.705Z" fill="white"/>
<path d="M284.249 371.251L290.879 367.688L292.88 371.66L297.801 369.282L295.544 364.917L301.931 361.396L309.916 376.011L309.019 388.845L302.973 392.093L292.87 386.143L284.249 371.251ZM301.214 374.975L296.026 377.762L297.927 381.301L301.808 383.909L302.873 383.337L302.991 377.872L301.214 374.975Z" fill="white"/>
<path d="M282.952 371.469L293.491 396.908L280.474 401.331L274.343 396.521L268.883 382.071L271.6 376.274L282.952 371.469ZM280.269 391.076L283.686 389.958L280.862 383.232L277.974 384.517L277.15 386.024L278.616 389.89L280.269 391.076Z" fill="white"/>
<path d="M273.824 403.09L265.47 405.954L263.132 397.011L259.776 395.547L257.824 399.037L260.244 407.836L252.296 409.82L249.058 398.05L254.692 391.768L251.313 382.424L259.728 379.785L262.25 389.689L269.813 391.451L273.824 403.09Z" fill="white"/>
<path d="M236.344 386.14L237.08 384.561L243.048 383.848L243.854 384.944L244.379 389.481L243.417 390.385L237.704 391.215L236.746 389.906L236.344 386.14ZM236.871 412.278L232.727 409.067L231.159 400.708L238.374 396.163L237.732 392.632L245.127 391.455L246.036 397.905L239.126 402.875L239.433 404.801L248.119 403.3L248.994 410.783L236.871 412.278Z" fill="white"/>
<path d="M200.531 383.408L207.696 385.983C206.456 389.171 204.45 394.244 201.678 401.202C198.905 408.187 196.87 413.323 195.572 416.612L188.418 413.843C189.444 411.242 191.387 406.374 194.246 399.238C197.104 392.128 199.199 386.852 200.531 383.408Z" fill="white"/>
<path d="M180.323 381.267L187.144 384.649C185.545 387.673 182.969 392.482 179.415 399.075C175.857 405.694 173.244 410.562 171.576 413.68L164.789 410.106C166.107 407.641 168.597 403.028 172.259 396.269C175.916 389.535 178.604 384.534 180.323 381.267Z" fill="white"/>
<path d="M139.148 402.137L131.088 398.869L138.607 381.465L130.945 378.359L133.675 370.796L149.232 376.641L139.148 402.137Z" fill="white"/>
<path d="M133.287 370.891L120.982 394.163C120.993 394.198 119.818 393.613 117.456 392.407C115.059 391.212 112.668 390.005 110.283 388.787L106.705 386.96L109.824 380.492L117.461 384.487L119.137 381.535L114.733 379.099L117.3 374.192L121.324 376.429L123.064 373.774L115.127 369.006L118.146 363.235L133.287 370.891Z" fill="white"/>
<path d="M104.157 385.088L89.1651 375.377L93.8032 368.531L97.2916 370.963L107.345 355.45L114.221 359.687L103.883 374.781L108.51 377.681L104.157 385.088Z" fill="white"/>
<path d="M89.4244 370.352L83.5009 371.545L74.2472 364.808L73.2536 359.502L76.5675 354.604L83.6359 360.253L81.2692 362.953L84.0923 365.169L86.5912 362.124L79.9301 350.199L85.0996 343.04L90.4796 341.955L101.001 350.59L101.878 354.993L97.7623 360.192L92.0343 355.491L94.0694 352.52L91.537 350.442L89.0358 353.182L94.6124 363.662L89.4244 370.352Z" fill="white"/>
<path d="M63.2781 347.325L56.7601 346.463C56.7404 346.48 56.4331 346.145 55.838 345.456C55.2063 344.765 54.4569 343.918 53.5899 342.914C52.7058 341.892 51.8401 340.87 50.9927 339.85C50.1257 338.846 49.396 337.982 48.8036 337.257C48.1916 336.549 47.8856 336.195 47.8856 336.195L53.4304 331.815L58.4356 338.263L62.1147 339.001L69.3174 333.497L69.6127 330.201L68.0046 327.982L60.8664 333.739L56.0266 328.437L68.1516 318.371L77.6742 328.852L78.0907 334.523L63.2781 347.325Z" fill="white"/>
<path d="M64.2409 319.451L48.1695 330.634L42.0542 330.164L34.7909 318.691L36.1637 313.142L51.0604 302.52L57.3026 302.621L64.846 313.951L64.2409 319.451ZM46.3539 321.357L48.1726 321.537L55.8752 316.219L56.0346 314.508L53.7141 311.087L51.8423 311.037L44.5167 316.147L44.1303 317.87L46.3539 321.357Z" fill="white"/>
<path d="M31.3427 310.922L27.9331 304.741L43.6698 296.773L46.3553 301.883L31.3427 310.922ZM50.2324 292.44L51.9786 292.457L54.252 297.305L53.4265 298.473L49.0755 300.516L48.0122 300.123L45.6128 295.612L46.5561 294.334L50.2324 292.44Z" fill="white"/>
<path d="M43.3449 264.372L43.5189 271.983C40.0985 271.972 34.6435 271.925 27.1538 271.841C19.6393 271.765 14.1144 271.713 10.5791 271.685L10.5906 264.014C13.386 264.036 18.6271 264.098 26.3141 264.2C33.9763 264.31 39.6532 264.368 43.3449 264.372Z" fill="white"/>
<path d="M38.0442 244.739L37.3232 252.318C33.9278 251.906 28.516 251.218 21.088 250.255C13.6344 249.297 8.15388 248.597 4.64631 248.154L5.55859 240.537C8.33201 240.887 13.5296 241.564 21.1514 242.568C28.7476 243.578 34.3786 244.301 38.0442 244.739Z" fill="white"/>
<path d="M30.8358 193.853L30.6324 201.377L26.1912 201.14L25.8098 206.592L30.7199 206.802L30.6008 214.095L13.9508 213.762L3.25916 206.607L3.44459 199.745L13.6283 193.934L30.8358 193.853ZM19.1738 206.724L19.3329 200.838L15.3173 200.729L11.1258 202.801L11.0932 204.009L15.7768 206.828L19.1738 206.724Z" fill="white"/>
<path d="M31.4753 193.085L4.38056 188.882L6.27047 174.063L10.8999 170.906L20.6777 172.506L22.6452 174.995L26.8439 172.642L34.6807 173.767L33.6554 181.736L26.0726 180.214L24.0255 181.575L23.6876 183.93L32.6053 185.21L31.4753 193.085ZM11.5403 178.799L10.9152 181.782L17.2464 182.691L17.5349 179.856L16.1516 178.239L13.0246 177.791L11.5403 178.799Z" fill="white"/>
<path d="M34.1303 172.037L8.67435 165.328C8.64266 165.346 8.94647 164.069 9.58576 161.495C10.2064 158.889 10.8396 156.287 11.4854 153.688L12.4541 149.789L19.4599 151.36L17.3004 159.705L20.5558 160.668L21.9296 155.827L27.291 157.214L26.0247 161.64L29.0047 162.734L31.8492 153.922L38.1544 155.554L34.1303 172.037Z" fill="white"/>
<path d="M17.662 136.382L20.7475 128.108L29.1442 131.974L32.4041 130.308L30.945 126.585L22.6077 122.874L26.1164 115.471L37.2685 120.435L38.5506 128.776L47.9177 132.091L44.6185 140.271L35.3628 135.937L29.2025 140.666L17.662 136.382Z" fill="white"/>
<path d="M47.4741 124.82L30.5709 114.939L28.4269 109.192L35.7835 97.7791L41.3956 96.6918L57.296 105.743L59.828 111.449L52.7188 123.057L47.4741 124.82ZM38.2254 109.392L38.8264 111.117L46.8902 115.87L48.5091 115.296L50.6379 111.752L49.8964 110.033L42.1803 105.534L40.4544 105.908L38.2254 109.392Z" fill="white"/>
<path d="M41.4255 91.4887L46.3214 84.822L61.3671 96.5408L63.226 94.2811L48.0709 82.5759L53.0899 76.0051L70.5251 89.7334L72.5265 94.2089L64.2246 104.55L59.6918 105.419L41.4255 91.4887Z" fill="white"/>
<path d="M82.0503 83.9024L63.8315 63.4119L74.723 53.1873L80.3032 53.6995L86.825 61.1583L86.7579 64.33L91.4935 65.1889L96.821 71.0452L90.9569 76.538L86.0779 70.5373L83.6328 70.2837L81.873 71.8846L87.9354 78.5486L82.0503 83.9024ZM75.7722 60.1941L73.3908 62.0969L77.6948 66.828L79.722 64.8257L79.6846 62.6981L77.5588 60.3613L75.7722 60.1941Z" fill="white"/>
<path d="M96.6109 70.0363L81.142 48.7354C81.1056 48.7298 82.1492 47.9326 84.2728 46.3437C86.4019 44.7186 88.5387 43.1039 90.6832 41.4997L93.9 39.0934L98.3311 44.7427L91.3797 49.8382L93.2913 52.6439L97.4181 49.764L100.692 54.2305L96.9113 56.8568L98.5273 59.5891L106.305 54.565L110.155 59.8179L96.6109 70.0363Z" fill="white"/>
<path d="M128.679 49.2251L122.157 52.9817L120.039 49.0706L115.191 51.5928L117.576 55.89L111.295 59.5973L102.882 45.225L103.4 32.3703L109.348 28.9446L119.622 34.5937L128.679 49.2251ZM111.612 46.0032L116.715 43.0641L114.71 39.5832L110.754 37.0908L109.706 37.6942L109.749 43.1603L111.612 46.0032Z" fill="white"/>
<path d="M129.832 48.9854L118.537 23.8729L131.416 19.0631L137.688 23.6879L143.577 37.9684L141.034 43.8433L129.832 48.9854ZM131.928 29.307L128.545 30.5271L131.569 37.165L134.417 35.7947L135.196 34.2636L133.615 30.4432L131.928 29.307Z" fill="white"/>
<path d="M138.662 16.8102L146.936 13.7258L149.511 22.6037L152.904 23.9778L154.763 20.4375L152.111 11.7055L160.004 9.51148L163.552 21.1914L158.087 27.6206L161.712 36.8721L153.37 39.7327L150.586 29.8992L142.979 28.3381L138.662 16.8102Z" fill="white"/>
<path d="M175.586 32.8972L174.898 34.4973L168.955 35.3927L168.115 34.322L167.452 29.8033L168.386 28.8708L174.07 27.866L175.068 29.1446L175.586 32.8972ZM174.258 6.78751L178.499 9.86958L180.321 18.1772L173.25 22.9405L173.999 26.4503L166.643 27.8533L165.538 21.4337L172.292 16.2545L171.927 14.339L163.291 16.1054L162.187 8.6532L174.258 6.78751Z" fill="white"/>
<path d="M211.974 34.407L204.743 32.0267C205.896 28.8067 207.764 23.6813 210.347 16.6505C212.931 9.59374 214.827 4.40406 216.035 1.08149L223.261 3.65664C222.306 6.28379 220.495 11.2027 217.829 18.4133C215.164 25.5979 213.212 30.9291 211.974 34.407Z" fill="white"/>
<path d="M232.19 35.907L225.281 32.7093C226.798 29.6437 229.244 24.7677 232.62 18.0814C236 11.3694 238.481 6.43274 240.064 3.27154L246.945 6.66226C245.694 9.16182 243.328 13.8393 239.849 20.6947C236.374 27.5243 233.821 32.5951 232.19 35.907Z" fill="white"/>
<path d="M272.7 13.7281L280.855 16.7529L273.86 34.3744L281.612 37.25L279.111 44.8909L263.384 39.515L272.7 13.7281Z" fill="white"/>
<path d="M279.101 44.5486L290.71 20.9215C290.698 20.8868 291.89 21.4372 294.287 22.5727C296.719 23.6963 299.144 24.8315 301.564 25.9784L305.195 27.6988L302.269 34.2556L294.517 30.489L292.929 33.4897L297.403 35.7935L294.983 40.7747L290.894 38.6584L289.233 41.3634L297.308 45.8938L294.462 51.752L279.101 44.5486Z" fill="white"/>
<path d="M308.328 29.7159L323.599 38.9826L319.163 45.9613L315.605 43.6326L306.011 59.4347L299.014 55.4007L308.905 40.0101L304.194 37.2467L308.328 29.7159Z" fill="white"/>
<path d="M324.079 44.3756L329.97 43.032L339.392 49.5306L340.521 54.8093L337.333 59.7908L330.123 54.3233L332.42 51.5645L329.541 49.4213L327.121 52.5289L334.084 64.2797L329.098 71.5689L323.748 72.7897L313.01 64.426L312.021 60.047L316.002 54.7445L321.848 59.2979L319.89 62.3203L322.474 64.3333L324.905 61.5302L319.063 51.1961L324.079 44.3756Z" fill="white"/>
<path d="M350.498 66.3451L357.038 67.0169C357.057 66.9994 357.374 67.326 357.989 67.9969C358.641 68.6694 359.414 69.4945 360.31 70.4721C361.224 71.4689 362.119 72.4648 362.995 73.46C363.891 74.4376 364.646 75.2802 365.259 75.9879C365.891 76.6779 366.208 77.023 366.208 77.023L360.792 81.5621L355.602 75.2629L351.903 74.6322L344.863 80.3426L344.664 83.6463L346.336 85.8171L353.304 79.8552L358.296 85.014L346.468 95.4289L336.645 85.2287L336.064 79.5722L350.498 66.3451Z" fill="white"/>
<path d="M350.128 93.8968L365.865 82.2483L371.992 82.5396L379.587 93.7952L378.377 99.3822L363.798 110.436L357.555 110.517L349.684 99.4121L350.128 93.8968ZM367.951 91.4685L366.128 91.3416L358.584 96.8832L358.475 98.5975L360.895 101.949L362.767 101.945L369.94 96.6225L370.276 94.8889L367.951 91.4685Z" fill="white"/>
<path d="M383.509 101.78L387.099 107.857L371.604 116.286L368.769 111.257L383.509 101.78ZM365.172 120.81L363.426 120.845L361.011 116.066L361.801 114.875L366.09 112.703L367.165 113.065L369.696 117.504L368.791 118.808L365.172 120.81Z" fill="white"/>
<path d="M372.838 148.453L372.435 140.851C375.854 140.758 381.308 140.641 388.797 140.5C396.31 140.35 401.834 140.235 405.369 140.157L405.588 147.825C402.794 147.887 397.553 147.983 389.866 148.112C382.204 148.233 376.528 148.346 372.838 148.453Z" fill="white"/>
<path d="M378.764 167.939L379.254 160.341C382.66 160.65 388.09 161.172 395.544 161.908C403.023 162.638 408.523 163.171 412.042 163.507L411.363 171.148C408.58 170.883 403.364 170.364 395.715 169.593C388.092 168.816 382.441 168.265 378.764 167.939Z" fill="white"/>
</svg>
