<svg width="62" height="62" viewBox="0 0 62 62" fill="none" xmlns="http://www.w3.org/2000/svg">
<path d="M39.6405 21.217C40.1248 20.9516 40.3024 20.3439 40.037 19.8595C39.7716 19.3752 39.1639 19.1976 38.6795 19.463L39.6405 21.217ZM20.25 30.7L19.7695 29.823C19.4492 29.9985 19.2501 30.3346 19.25 30.6998C19.2499 31.065 19.4489 31.4012 19.7692 31.5768L20.25 30.7ZM38.6792 41.9468C39.1634 42.2124 39.7713 42.0351 40.0368 41.5508C40.3024 41.0666 40.1251 40.4587 39.6408 40.1932L38.6792 41.9468ZM38.6795 19.463L19.7695 29.823L20.7305 31.577L39.6405 21.217L38.6795 19.463ZM19.7692 31.5768L38.6792 41.9468L39.6408 40.1932L20.7308 29.8232L19.7692 31.5768ZM59.4 30.7C59.4 46.5506 46.5506 59.4 30.7 59.4V61.4C47.6551 61.4 61.4 47.6551 61.4 30.7H59.4ZM30.7 59.4C14.8494 59.4 2 46.5506 2 30.7H0C0 47.6551 13.7449 61.4 30.7 61.4V59.4ZM2 30.7C2 14.8494 14.8494 2 30.7 2V0C13.7449 0 0 13.7449 0 30.7H2ZM30.7 2C46.5506 2 59.4 14.8494 59.4 30.7H61.4C61.4 13.7449 47.6551 0 30.7 0V2Z" fill="white"/>
</svg>
